<?xml version="1.0" encoding="UTF-8" standalone="no"?>
<!-- Created with Inkscape (http://www.inkscape.org/) -->

<svg
   xmlns:dc="http://purl.org/dc/elements/1.1/"
   xmlns:cc="http://creativecommons.org/ns#"
   xmlns:rdf="http://www.w3.org/1999/02/22-rdf-syntax-ns#"
   xmlns:svg="http://www.w3.org/2000/svg"
   xmlns="http://www.w3.org/2000/svg"
   xmlns:sodipodi="http://sodipodi.sourceforge.net/DTD/sodipodi-0.dtd"
   xmlns:inkscape="http://www.inkscape.org/namespaces/inkscape"
   width="1.3229181mm"
   height="1.32292mm"
   viewBox="0 0 1.322918 1.32292"
   version="1.1"
   id="svg8"
   inkscape:version="0.92.4 (5da689c313, 2019-01-14)"
   sodipodi:docname="facebook.svg">
  <defs
     id="defs2" />
  <sodipodi:namedview
     id="base"
     pagecolor="#ffffff"
     bordercolor="#666666"
     borderopacity="1.0"
     inkscape:pageopacity="0.0"
     inkscape:pageshadow="2"
     inkscape:zoom="15.839192"
     inkscape:cx="-0.93492077"
     inkscape:cy="-1.2699697"
     inkscape:document-units="mm"
     inkscape:current-layer="layer1"
     showgrid="false"
     fit-margin-top="0"
     fit-margin-left="0"
     fit-margin-right="0"
     fit-margin-bottom="0"
     inkscape:window-width="1366"
     inkscape:window-height="705"
     inkscape:window-x="-8"
     inkscape:window-y="-8"
     inkscape:window-maximized="1" />
  <metadata
     id="metadata5">
    <rdf:RDF>
      <cc:Work
         rdf:about="">
        <dc:format>image/svg+xml</dc:format>
        <dc:type
           rdf:resource="http://purl.org/dc/dcmitype/StillImage" />
        <dc:title></dc:title>
      </cc:Work>
    </rdf:RDF>
  </metadata>
  <g
     inkscape:label="Capa 1"
     inkscape:groupmode="layer"
     id="layer1"
     transform="translate(55.592701,-271.08735)">
    <path
       id="path3735"
       d="m -54.411525,271.08735 h -1.039435 a 0.14174107,0.14174107 0 0 0 -0.141741,0.14174 v 1.03944 a 0.14174107,0.14174107 0 0 0 0.141741,0.14174 h 0.405291 v -0.44976 h -0.186035 v -0.2117 h 0.186035 v -0.16135 c 0,-0.18352 0.109259,-0.2849 0.276602,-0.2849 0.08014,0 0.163947,0.0143 0.163947,0.0143 v 0.18013 h -0.09234 c -0.09098,0 -0.119357,0.0565 -0.119357,0.11436 v 0.13746 h 0.203103 l -0.03248,0.2117 h -0.170621 v 0.44976 h 0.405291 a 0.14174107,0.14174107 0 0 0 0.141741,-0.14174 v -1.03944 a 0.14174107,0.14174107 0 0 0 -0.141742,-0.14174 z"
       inkscape:connector-curvature="0"
       style="fill:#ffffff;stroke-width:0.00295294" />
  </g>
</svg>
