<?xml version="1.0" encoding="UTF-8" standalone="no"?>
<!-- Created with Inkscape (http://www.inkscape.org/) -->

<svg
   xmlns:dc="http://purl.org/dc/elements/1.1/"
   xmlns:cc="http://creativecommons.org/ns#"
   xmlns:rdf="http://www.w3.org/1999/02/22-rdf-syntax-ns#"
   xmlns:svg="http://www.w3.org/2000/svg"
   xmlns="http://www.w3.org/2000/svg"
   xmlns:xlink="http://www.w3.org/1999/xlink"
   xmlns:sodipodi="http://sodipodi.sourceforge.net/DTD/sodipodi-0.dtd"
   xmlns:inkscape="http://www.inkscape.org/namespaces/inkscape"
   width="4.2333331mm"
   height="6.9138155mm"
   viewBox="0 0 4.2333331 6.9138155"
   version="1.1"
   id="svg216"
   inkscape:version="0.92.4 (5da689c313, 2019-01-14)"
   sodipodi:docname="logo-footer.svg">
  <defs
     id="defs210">
    <filter
       id="filter5571"
       inkscape:label="Drop Shadow"
       style="color-interpolation-filters:sRGB">
      <feFlood
         id="feFlood5561"
         result="flood"
         flood-color="rgb(0,0,0)"
         flood-opacity="0.737255" />
      <feComposite
         id="feComposite5563"
         result="composite1"
         operator="in"
         in2="SourceGraphic"
         in="flood" />
      <feGaussianBlur
         id="feGaussianBlur5565"
         result="blur"
         stdDeviation="8.9"
         in="composite1" />
      <feOffset
         id="feOffset5567"
         result="offset"
         dy="6.5"
         dx="7.3" />
      <feComposite
         id="feComposite5569"
         result="composite2"
         operator="over"
         in2="offset"
         in="SourceGraphic" />
    </filter>
    <linearGradient
       gradientUnits="userSpaceOnUse"
       y2="284.19574"
       x2="4.2940192"
       y1="185.56206"
       x1="87.760605"
       id="linearGradient6659"
       xlink:href="#linearGradient6657"
       inkscape:collect="always"
       gradientTransform="matrix(12.635288,0,0,12.635288,-128.98578,297.3617)" />
    <linearGradient
       id="linearGradient6657"
       inkscape:collect="always">
      <stop
         id="stop6653"
         offset="0"
         style="stop-color:#d27a00;stop-opacity:1;" />
      <stop
         id="stop6655"
         offset="1"
         style="stop-color:#d27a00;stop-opacity:0;" />
    </linearGradient>
    <linearGradient
       gradientUnits="userSpaceOnUse"
       y2="6.4619465"
       x2="97.148506"
       y1="-54.383987"
       x1="136.28055"
       id="linearGradient6619"
       xlink:href="#linearGradient6617"
       inkscape:collect="always"
       gradientTransform="matrix(12.635288,0,0,12.635288,-814.46999,2645.4286)" />
    <linearGradient
       id="linearGradient6617"
       inkscape:collect="always">
      <stop
         id="stop6613"
         offset="0"
         style="stop-color:#ffffff;stop-opacity:1;" />
      <stop
         id="stop6615"
         offset="1"
         style="stop-color:#ffffff;stop-opacity:0;" />
    </linearGradient>
    <linearGradient
       inkscape:collect="always"
       xlink:href="#linearGradient6617"
       id="linearGradient328"
       gradientUnits="userSpaceOnUse"
       gradientTransform="matrix(12.635288,0,0,12.635288,-814.46999,2645.4286)"
       x1="136.28055"
       y1="-54.383987"
       x2="97.148506"
       y2="6.4619465" />
    <linearGradient
       inkscape:collect="always"
       xlink:href="#linearGradient6617"
       id="linearGradient330"
       gradientUnits="userSpaceOnUse"
       gradientTransform="matrix(12.635288,0,0,12.635288,-814.46999,2645.4286)"
       x1="136.28055"
       y1="-54.383987"
       x2="97.148506"
       y2="6.4619465" />
    <linearGradient
       inkscape:collect="always"
       xlink:href="#linearGradient6657"
       id="linearGradient332"
       gradientUnits="userSpaceOnUse"
       gradientTransform="matrix(12.635288,0,0,12.635288,-128.98578,297.3617)"
       x1="87.760605"
       y1="185.56206"
       x2="4.2940192"
       y2="284.19574" />
    <linearGradient
       inkscape:collect="always"
       xlink:href="#linearGradient6657"
       id="linearGradient334"
       gradientUnits="userSpaceOnUse"
       gradientTransform="matrix(12.635288,0,0,12.635288,-128.98578,297.3617)"
       x1="87.760605"
       y1="185.56206"
       x2="4.2940192"
       y2="284.19574" />
    <linearGradient
       inkscape:collect="always"
       xlink:href="#linearGradient6657"
       id="linearGradient336"
       gradientUnits="userSpaceOnUse"
       gradientTransform="matrix(12.635288,0,0,12.635288,-128.98578,297.3617)"
       x1="87.760605"
       y1="185.56206"
       x2="4.2940192"
       y2="284.19574" />
  </defs>
  <sodipodi:namedview
     id="base"
     pagecolor="#ffffff"
     bordercolor="#666666"
     borderopacity="1.0"
     inkscape:pageopacity="0.0"
     inkscape:pageshadow="2"
     inkscape:zoom="7.9195959"
     inkscape:cx="18.975136"
     inkscape:cy="13.947823"
     inkscape:document-units="mm"
     inkscape:current-layer="layer1"
     showgrid="false"
     fit-margin-top="0"
     fit-margin-left="0"
     fit-margin-right="0"
     fit-margin-bottom="0"
     inkscape:window-width="1366"
     inkscape:window-height="705"
     inkscape:window-x="-8"
     inkscape:window-y="-8"
     inkscape:window-maximized="1" />
  <metadata
     id="metadata213">
    <rdf:RDF>
      <cc:Work
         rdf:about="">
        <dc:format>image/svg+xml</dc:format>
        <dc:type
           rdf:resource="http://purl.org/dc/dcmitype/StillImage" />
        <dc:title></dc:title>
      </cc:Work>
    </rdf:RDF>
  </metadata>
  <g
     inkscape:label="Capa 1"
     inkscape:groupmode="layer"
     id="layer1"
     transform="translate(-7.08459,-171.23544)">
    <g
       id="g6540"
       style="fill:url(#linearGradient6619);fill-opacity:1;stroke:none;stroke-opacity:1"
       transform="matrix(0.08502987,0,0,0.08502987,-1.4154554,176.70197)"
       inkscape:export-xdpi="96"
       inkscape:export-ydpi="96">
      <path
         inkscape:connector-curvature="0"
         id="path5210"
         d="m 115.85344,-44.547734 0.008,-7.18914 -5.83719,0.0183 -9.92607,-12.19865 h 46.25968 v 12.1804 h -15.76127 l -0.002,25.33199 z"
         style="opacity:1;fill:url(#linearGradient328);fill-opacity:1;stroke:none;stroke-width:0.26458332px;stroke-linecap:butt;stroke-linejoin:miter;stroke-opacity:1" />
      <path
         inkscape:connector-curvature="0"
         id="path5212"
         d="m 134.54518,-21.634094 -0.006,-26.28195 h 15.1125 l -0.0349,44.9334002 z"
         style="opacity:1;fill:url(#linearGradient330);fill-opacity:1;stroke:none;stroke-width:0.26458332px;stroke-linecap:butt;stroke-linejoin:miter;stroke-opacity:1" />
    </g>
    <g
       id="g6643"
       transform="matrix(0.07914343,0,0,0.07914343,3.6592707,159.39202)"
       style="fill:url(#linearGradient6659);fill-opacity:1"
       inkscape:export-xdpi="96"
       inkscape:export-ydpi="96">
      <path
         inkscape:connector-curvature="0"
         id="path5214"
         d="m 43.422025,150.04493 v 13.08634 l 10.664329,0.0197 z"
         style="opacity:0.95;fill:url(#linearGradient332);fill-opacity:1;stroke:#d27a00;stroke-width:0.28426221px;stroke-linecap:butt;stroke-linejoin:miter;stroke-opacity:0.28140702" />
      <path
         inkscape:connector-curvature="0"
         id="path5216"
         d="m 60.349531,170.85512 0.0086,45.01197 H 76.18921 l -0.0021,-25.5197 z"
         style="opacity:0.95;fill:url(#linearGradient334);fill-opacity:1;stroke:#d27a00;stroke-width:0.28426221px;stroke-linecap:butt;stroke-linejoin:miter;stroke-opacity:0.28140702" />
      <path
         sodipodi:nodetypes="ccccc"
         inkscape:connector-curvature="0"
         id="path5218"
         d="m 80.431505,195.47301 c -0.668015,28.86729 3.426253,28.32718 -18.059008,27.04198 0.0375,8.86702 0,12.892 0,12.892 20.676341,4.06621 33.073469,0.2555 34.251684,-19.8953 z"
         style="opacity:0.95;fill:url(#linearGradient336);fill-opacity:1;stroke:#d27a00;stroke-width:0.28426221px;stroke-linecap:butt;stroke-linejoin:miter;stroke-opacity:0.28140702" />
    </g>
    <g
       id="g5278"
       transform="matrix(0.00337253,0,0,0.00337253,8.945047,173.61812)"
       style="filter:url(#filter5571)"
       inkscape:export-xdpi="96"
       inkscape:export-ydpi="96">
      <g
         id="g5222">
        <path
           id="path5284"
           d="M 320.192,368.956 H -82.693001 C -92.251001,368.956 -100,361.208 -100,351.649 V 121.62114 c 0,-9.559 11.320444,-24.433824 20.878428,-24.45086 L 321.62057,96.456 c 9.55898,-0.01704 17.3661,10.60632 17.308,20.16514 L 337.5,351.649 c -0.0581,9.55882 -7.749,17.307 -17.308,17.307 z M 517.153,245.552 H 409.327 c -4.76,0 -41.48833,3.3348 -41.51114,-1.51114 l -0.50508,-107.28649 58.15636,-0.41433 66.71545,0.0346 c 10.93622,4.7997 39.64849,47.98224 39.64849,47.98224 l 38.38286,59.22485 C 551.80305,245.50568 524.163,245.552 517.153,245.552 Z m 86.194,140.712 H 582.318 V 268.658 c 0,-13.759 -4.154,-27.259 -11.856,-38.683 l -52.701,-78.057 c -12.809,-19.039 -34.356,-30.462 -57.375,-30.462 h -81.692 c -9.52,0 -17.308,7.702 -17.308,17.308 v 247.5 H 87.682998 C 100.318,397.254 109.058,412.486 111.568,429.879 h 281.144 c 4.933,-34.355 34.529,-60.923 70.27,-60.923 35.739,0 65.336,26.567 70.355,60.923 h 70.01 c 4.847,0 8.653,-3.895 8.653,-8.654 v -26.307 c 0,-4.76 -3.808,-8.654 -8.653,-8.654 z m -140.366,80.827 c -14.885,0 -26.914,-12.115 -26.914,-27 0,-14.798 12.029,-26.914 26.914,-26.914 14.884,0 26.913,12.115 26.913,26.914 10e-4,14.885 -12.029,27 -26.913,27 z m 0,-80.827 c -29.684,0 -53.827,24.145 -53.827,53.827 0,29.769 24.144,53.914 53.827,53.914 29.769,0 53.826,-24.146 53.826,-53.914 10e-4,-29.682 -24.057,-53.827 -53.826,-53.827 z M -5.1120018,386.287 H -85.772001 c -4.779,0 -8.653,3.874 -8.653,8.653 v 26.256 c 0,4.779 3.874,8.653 8.653,8.653 h 56.713999 c 2.526,-17.325 11.27,-32.63 23.9460002,-43.562 z m 45.6532298,80.4275 c -14.885,0 -27,-12.115 -27,-27 0,-14.798 12.115,-26.914 27,-26.914 14.797,0 26.913,12.115 26.913,26.914 0,14.885 -12.115,27 -26.913,27 z m 0.75677,-80.4505 c -29.77,0 -53.915,24.145 -53.915,53.827 0,29.769 24.145,53.914 53.915,53.914 29.683,0 53.827,-24.146 53.827,-53.914 0,-29.682 -24.144,-53.827 -53.827,-53.827 z"
           inkscape:connector-curvature="0" />
      </g>
      <g
         id="g5224" />
      <g
         id="g5226" />
      <g
         id="g5228" />
      <g
         id="g5230" />
      <g
         id="g5232" />
      <g
         id="g5234" />
      <g
         id="g5236" />
      <g
         id="g5238" />
      <g
         id="g5240" />
      <g
         id="g5242" />
      <g
         id="g5244" />
      <g
         id="g5246" />
      <g
         id="g5248" />
      <g
         id="g5250" />
      <g
         id="g5252" />
    </g>
    <path
       style="opacity:1;fill:#d27a00;fill-opacity:0.95294118;stroke:none;stroke-width:0.20413351;stroke-miterlimit:4;stroke-dasharray:none;stroke-opacity:1"
       d="m 9.4372235,178.12001 c -0.01876,-0.008 -0.2088328,-0.16306 -0.4223884,-0.34421 -0.2135557,-0.18116 -0.3913477,-0.32938 -0.3950932,-0.32938 -0.00374,0 -0.00933,0.032 -0.012412,0.071 -0.00308,0.039 -0.00682,-0.059 -0.0083,-0.21778 l -0.0027,-0.28883 0.2206182,0.0122 c 0.1213399,0.006 0.3518673,0.0121 0.5122828,0.012 0.3544502,-1.7e-4 0.4306766,-0.0181 0.539043,-0.12641 0.1287184,-0.12872 0.1508441,-0.27445 0.1499661,-0.98776 -3.6e-4,-0.29204 0.0035,-0.58988 0.0086,-0.66186 l 0.0092,-0.13087 0.09903,2.4e-4 0.09903,2.5e-4 0.26175,0.32489 c 0.143963,0.17869 0.384502,0.477 0.534531,0.66291 l 0.272781,0.33802 -0.02302,0.19802 c -0.09955,0.85623 -0.490349,1.31604 -1.227826,1.44465 -0.1600075,0.0279 -0.5687275,0.0431 -0.6151355,0.023 z m 0.011672,-0.0214 c 0,-0.003 -0.042067,-0.041 -0.093482,-0.0838 l -0.093482,-0.0778 0.089743,0.0835 c 0.08964,0.0834 0.097222,0.0895 0.097222,0.0782 z m -0.1944449,-0.16456 c 0,-0.003 -0.042067,-0.041 -0.093482,-0.0839 l -0.093482,-0.0778 0.089743,0.0835 c 0.089641,0.0834 0.097221,0.0895 0.097221,0.0782 z m -0.1944431,-0.16453 c 0,-0.003 -0.042067,-0.041 -0.093482,-0.0838 l -0.093482,-0.0778 0.089743,0.0835 c 0.089641,0.0834 0.097222,0.0895 0.097222,0.0782 z m -0.1944431,-0.16453 c 0,-0.003 -0.042067,-0.041 -0.093482,-0.0838 l -0.093482,-0.0778 0.089743,0.0835 c 0.089641,0.0834 0.097222,0.0895 0.097222,0.0782 z M 8.6711211,177.4413 c 0,-0.003 -0.015144,-0.018 -0.033653,-0.0337 l -0.033654,-0.0285 0.028493,0.0337 c 0.026777,0.0316 0.038814,0.0405 0.038814,0.0285 z"
       id="path4142"
       inkscape:connector-curvature="0" />
    <path
       style="opacity:1;fill:#d27a00;fill-opacity:0.95294118;stroke:none;stroke-width:0.20413351;stroke-miterlimit:4;stroke-dasharray:none;stroke-opacity:1"
       d="m 9.0824433,178.09667 c -0.1611059,-0.021 -0.4173826,-0.0634 -0.4599329,-0.0761 -0.02365,-0.007 -0.026031,-0.0319 -0.024684,-0.25735 8.24e-4,-0.13724 0.0059,-0.26519 0.011281,-0.28433 0.00942,-0.0335 0.013694,-0.0315 0.1144272,0.0528 0.05755,0.0482 0.2325204,0.19437 0.3888229,0.32483 0.1563025,0.13046 0.2905804,0.24298 0.2983954,0.25005 0.020191,0.0182 -0.1513579,0.013 -0.3283097,-0.01 z"
       id="path4144"
       inkscape:connector-curvature="0" />
    <path
       style="opacity:1;fill:#d27a00;fill-opacity:0.95294118;stroke:none;stroke-width:0.20413351;stroke-miterlimit:4;stroke-dasharray:none;stroke-opacity:1"
       d="m 8.4472376,174.70552 c 4.68e-4,-1.7472 8.24e-4,-1.76823 0.029193,-1.73129 0.015795,0.0206 0.1960758,0.24268 0.4006235,0.49358 l 0.3719045,0.4562 -0.2977515,0.007 c -0.2906097,0.007 -0.2984367,0.008 -0.3263114,0.0428 -0.026598,0.0329 -0.028523,0.0637 -0.02803,0.44871 4.058e-4,0.3165 0.00522,0.42188 0.020547,0.44954 0.014634,0.0264 0.016183,0.05 0.00577,0.0877 -0.00784,0.0284 -0.010344,0.0672 -0.00557,0.0862 0.016586,0.0661 0.047923,0.0816 0.1650942,0.0816 h 0.1094458 l 0.00933,0.0498 c 0.015987,0.0852 0.1156884,0.15971 0.2136346,0.15961 0.0849,-8e-5 0.1519562,-0.0482 0.1887838,-0.13531 l 0.031276,-0.074 h 0.1765168 0.1765176 v 0.67307 0.67307 H 9.067486 8.4467637 Z"
       id="path4146"
       inkscape:connector-curvature="0" />
    <path
       style="opacity:1;fill:#d27a00;fill-opacity:0.95294118;stroke:none;stroke-width:0.20413351;stroke-miterlimit:4;stroke-dasharray:none;stroke-opacity:1"
       d="m 8.4469296,174.70552 1.654e-4,-1.76868 0.035978,0.0449 c 0.019788,0.0247 0.2003562,0.24679 0.401263,0.49358 l 0.3652851,0.44872 -0.2962866,0.007 c -0.2577663,0.006 -0.2997469,0.011 -0.3229037,0.0342 -0.024261,0.0242 -0.026618,0.064 -0.026618,0.44862 0,0.23211 0.00608,0.43548 0.013506,0.45192 0.00743,0.0165 0.01193,0.0707 0.010002,0.12056 -0.00445,0.11498 0.010929,0.12862 0.155373,0.13789 0.1043427,0.006 0.1110269,0.009 0.1201283,0.0463 0.016546,0.0674 0.052545,0.10826 0.1225836,0.13924 0.1169902,0.0518 0.2296882,0.002 0.2796258,-0.12237 l 0.023961,-0.0599 h 0.1796072 0.1796072 v 0.67307 0.67307 H 9.067486 8.4467637 Z"
       id="path4148"
       inkscape:connector-curvature="0" />
    <path
       style="opacity:1;fill:#d27a00;fill-opacity:0.95294118;stroke:none;stroke-width:0.20413351;stroke-miterlimit:4;stroke-dasharray:none;stroke-opacity:1"
       d="m 7.1006188,171.79172 v -0.50944 l 0.3986798,0.49074 c 0.2192739,0.26991 0.4051929,0.49916 0.4131535,0.50944 0.0115,0.0149 -0.070409,0.0187 -0.3986798,0.0187 H 7.1006188 Z"
       id="path4150"
       inkscape:connector-curvature="0" />
    <path
       style="opacity:1;fill:#d27a00;fill-opacity:0.95294118;stroke:none;stroke-width:0.20413351;stroke-miterlimit:4;stroke-dasharray:none;stroke-opacity:1"
       d="m 7.1006188,171.79172 v -0.50944 l 0.3986798,0.49074 c 0.2192739,0.26991 0.4051929,0.49916 0.4131535,0.50944 0.0115,0.0149 -0.070409,0.0187 -0.3986798,0.0187 H 7.1006188 Z"
       id="path4152"
       inkscape:connector-curvature="0" />
  </g>
</svg>
