<?xml version="1.0" encoding="UTF-8" standalone="no"?>
<!-- Created with Inkscape (http://www.inkscape.org/) -->

<svg
   xmlns:dc="http://purl.org/dc/elements/1.1/"
   xmlns:cc="http://creativecommons.org/ns#"
   xmlns:rdf="http://www.w3.org/1999/02/22-rdf-syntax-ns#"
   xmlns:svg="http://www.w3.org/2000/svg"
   xmlns="http://www.w3.org/2000/svg"
   xmlns:xlink="http://www.w3.org/1999/xlink"
   xmlns:sodipodi="http://sodipodi.sourceforge.net/DTD/sodipodi-0.dtd"
   xmlns:inkscape="http://www.inkscape.org/namespaces/inkscape"
   width="202.1646"
   height="330.17215"
   viewBox="0 0 53.489384 87.358047"
   version="1.1"
   id="svg212"
   inkscape:version="0.92.4 (5da689c313, 2019-01-14)"
   sodipodi:docname="logo.svg">
  <defs
     id="defs206">
    <filter
       id="filter5571"
       inkscape:label="Drop Shadow"
       style="color-interpolation-filters:sRGB">
      <feFlood
         id="feFlood5561"
         result="flood"
         flood-color="rgb(0,0,0)"
         flood-opacity="0.737255" />
      <feComposite
         id="feComposite5563"
         result="composite1"
         operator="in"
         in2="SourceGraphic"
         in="flood" />
      <feGaussianBlur
         id="feGaussianBlur5565"
         result="blur"
         stdDeviation="8.9"
         in="composite1" />
      <feOffset
         id="feOffset5567"
         result="offset"
         dy="6.5"
         dx="7.3" />
      <feComposite
         id="feComposite5569"
         result="composite2"
         operator="over"
         in2="offset"
         in="SourceGraphic" />
    </filter>
    <linearGradient
       gradientUnits="userSpaceOnUse"
       y2="284.19574"
       x2="4.2940192"
       y1="185.56206"
       x1="87.760605"
       id="linearGradient6659"
       xlink:href="#linearGradient6657"
       inkscape:collect="always"
       gradientTransform="translate(29.646194,161.33587)" />
    <linearGradient
       id="linearGradient6657"
       inkscape:collect="always">
      <stop
         id="stop6653"
         offset="0"
         style="stop-color:#d27a00;stop-opacity:1;" />
      <stop
         id="stop6655"
         offset="1"
         style="stop-color:#d27a00;stop-opacity:0;" />
    </linearGradient>
    <linearGradient
       gradientUnits="userSpaceOnUse"
       y2="6.4619465"
       x2="97.148506"
       y1="-54.383987"
       x1="136.28055"
       id="linearGradient6619"
       xlink:href="#linearGradient6617"
       inkscape:collect="always"
       gradientTransform="translate(27.593849,150.16692)" />
    <linearGradient
       id="linearGradient6617"
       inkscape:collect="always">
      <stop
         id="stop6613"
         offset="0"
         style="stop-color:#ffffff;stop-opacity:1;" />
      <stop
         id="stop6615"
         offset="1"
         style="stop-color:#ffffff;stop-opacity:0;" />
    </linearGradient>
    <linearGradient
       inkscape:collect="always"
       xlink:href="#linearGradient6617"
       id="linearGradient316"
       gradientUnits="userSpaceOnUse"
       gradientTransform="translate(27.593849,150.16692)"
       x1="136.28055"
       y1="-54.383987"
       x2="97.148506"
       y2="6.4619465" />
    <linearGradient
       inkscape:collect="always"
       xlink:href="#linearGradient6617"
       id="linearGradient318"
       gradientUnits="userSpaceOnUse"
       gradientTransform="translate(27.593849,150.16692)"
       x1="136.28055"
       y1="-54.383987"
       x2="97.148506"
       y2="6.4619465" />
    <linearGradient
       inkscape:collect="always"
       xlink:href="#linearGradient6657"
       id="linearGradient320"
       gradientUnits="userSpaceOnUse"
       gradientTransform="translate(29.646194,161.33587)"
       x1="87.760605"
       y1="185.56206"
       x2="4.2940192"
       y2="284.19574" />
    <linearGradient
       inkscape:collect="always"
       xlink:href="#linearGradient6657"
       id="linearGradient322"
       gradientUnits="userSpaceOnUse"
       gradientTransform="translate(29.646194,161.33587)"
       x1="87.760605"
       y1="185.56206"
       x2="4.2940192"
       y2="284.19574" />
    <linearGradient
       inkscape:collect="always"
       xlink:href="#linearGradient6657"
       id="linearGradient324"
       gradientUnits="userSpaceOnUse"
       gradientTransform="translate(29.646194,161.33587)"
       x1="87.760605"
       y1="185.56206"
       x2="4.2940192"
       y2="284.19574" />
  </defs>
  <sodipodi:namedview
     id="base"
     pagecolor="#ffffff"
     bordercolor="#666666"
     borderopacity="1.0"
     inkscape:pageopacity="0.0"
     inkscape:pageshadow="2"
     inkscape:zoom="0.98994949"
     inkscape:cx="243.77546"
     inkscape:cy="190.58324"
     inkscape:document-units="mm"
     inkscape:current-layer="layer1"
     showgrid="false"
     fit-margin-top="0"
     fit-margin-left="0"
     fit-margin-right="0"
     fit-margin-bottom="0"
     units="px"
     inkscape:window-width="1366"
     inkscape:window-height="705"
     inkscape:window-x="-8"
     inkscape:window-y="-8"
     inkscape:window-maximized="1" />
  <metadata
     id="metadata209">
    <rdf:RDF>
      <cc:Work
         rdf:about="">
        <dc:format>image/svg+xml</dc:format>
        <dc:type
           rdf:resource="http://purl.org/dc/dcmitype/StillImage" />
        <dc:title></dc:title>
      </cc:Work>
    </rdf:RDF>
  </metadata>
  <g
     inkscape:label="Capa 1"
     inkscape:groupmode="layer"
     id="layer1"
     transform="translate(-30.707689,-60.55312)">
    <g
       id="g6540"
       style="fill:url(#linearGradient6619);fill-opacity:1;stroke:none;stroke-opacity:1"
       transform="matrix(1.0743769,0,0,1.0743769,-76.692832,129.62423)"
       inkscape:export-xdpi="96"
       inkscape:export-ydpi="96">
      <path
         inkscape:connector-curvature="0"
         id="path5210"
         d="m 115.85344,-44.547734 0.008,-7.18914 -5.83719,0.0183 -9.92607,-12.19865 h 46.25968 v 12.1804 h -15.76127 l -0.002,25.33199 z"
         style="opacity:1;fill:url(#linearGradient316);fill-opacity:1;stroke:none;stroke-width:0.26458332px;stroke-linecap:butt;stroke-linejoin:miter;stroke-opacity:1" />
      <path
         inkscape:connector-curvature="0"
         id="path5212"
         d="m 134.54518,-21.634094 -0.006,-26.28195 h 15.1125 l -0.0349,44.9334002 z"
         style="opacity:1;fill:url(#linearGradient318);fill-opacity:1;stroke:none;stroke-width:0.26458332px;stroke-linecap:butt;stroke-linejoin:miter;stroke-opacity:1" />
    </g>
    <g
       id="g6643"
       transform="translate(-12.572205,-89.091943)"
       style="fill:url(#linearGradient6659);fill-opacity:1"
       inkscape:export-xdpi="96"
       inkscape:export-ydpi="96">
      <path
         inkscape:connector-curvature="0"
         id="path5214"
         d="m 43.422025,150.04493 v 13.08634 l 10.664329,0.0197 z"
         style="opacity:0.95;fill:url(#linearGradient320);fill-opacity:1;stroke:#d27a00;stroke-width:0.28426221px;stroke-linecap:butt;stroke-linejoin:miter;stroke-opacity:0.28140702" />
      <path
         inkscape:connector-curvature="0"
         id="path5216"
         d="m 60.349531,170.85512 0.0086,45.01197 H 76.18921 l -0.0021,-25.5197 z"
         style="opacity:0.95;fill:url(#linearGradient322);fill-opacity:1;stroke:#d27a00;stroke-width:0.28426221px;stroke-linecap:butt;stroke-linejoin:miter;stroke-opacity:0.28140702" />
      <path
         sodipodi:nodetypes="ccccc"
         inkscape:connector-curvature="0"
         id="path5218"
         d="m 80.431505,195.47301 c -0.668015,28.86729 3.426253,28.32718 -18.059008,27.04198 0.0375,8.86702 0,12.892 0,12.892 20.676341,4.06621 33.073469,0.2555 34.251684,-19.8953 z"
         style="opacity:0.95;fill:url(#linearGradient324);fill-opacity:1;stroke:#d27a00;stroke-width:0.28426221px;stroke-linecap:butt;stroke-linejoin:miter;stroke-opacity:0.28140702" />
    </g>
    <g
       id="g5278"
       transform="matrix(0.04261284,0,0,0.04261284,54.215104,90.658805)"
       style="filter:url(#filter5571)"
       inkscape:export-xdpi="96"
       inkscape:export-ydpi="96">
      <g
         id="g5222">
        <path
           id="path5284"
           d="M 320.192,368.956 H -82.693001 C -92.251001,368.956 -100,361.208 -100,351.649 V 121.62114 c 0,-9.559 11.320444,-24.433824 20.878428,-24.45086 L 321.62057,96.456 c 9.55898,-0.01704 17.3661,10.60632 17.308,20.16514 L 337.5,351.649 c -0.0581,9.55882 -7.749,17.307 -17.308,17.307 z M 517.153,245.552 H 409.327 c -4.76,0 -41.48833,3.3348 -41.51114,-1.51114 l -0.50508,-107.28649 58.15636,-0.41433 66.71545,0.0346 c 10.93622,4.7997 39.64849,47.98224 39.64849,47.98224 l 38.38286,59.22485 C 551.80305,245.50568 524.163,245.552 517.153,245.552 Z m 86.194,140.712 H 582.318 V 268.658 c 0,-13.759 -4.154,-27.259 -11.856,-38.683 l -52.701,-78.057 c -12.809,-19.039 -34.356,-30.462 -57.375,-30.462 h -81.692 c -9.52,0 -17.308,7.702 -17.308,17.308 v 247.5 H 87.682998 C 100.318,397.254 109.058,412.486 111.568,429.879 h 281.144 c 4.933,-34.355 34.529,-60.923 70.27,-60.923 35.739,0 65.336,26.567 70.355,60.923 h 70.01 c 4.847,0 8.653,-3.895 8.653,-8.654 v -26.307 c 0,-4.76 -3.808,-8.654 -8.653,-8.654 z m -140.366,80.827 c -14.885,0 -26.914,-12.115 -26.914,-27 0,-14.798 12.029,-26.914 26.914,-26.914 14.884,0 26.913,12.115 26.913,26.914 10e-4,14.885 -12.029,27 -26.913,27 z m 0,-80.827 c -29.684,0 -53.827,24.145 -53.827,53.827 0,29.769 24.144,53.914 53.827,53.914 29.769,0 53.826,-24.146 53.826,-53.914 10e-4,-29.682 -24.057,-53.827 -53.826,-53.827 z M -5.1120018,386.287 H -85.772001 c -4.779,0 -8.653,3.874 -8.653,8.653 v 26.256 c 0,4.779 3.874,8.653 8.653,8.653 h 56.713999 c 2.526,-17.325 11.27,-32.63 23.9460002,-43.562 z m 45.6532298,80.4275 c -14.885,0 -27,-12.115 -27,-27 0,-14.798 12.115,-26.914 27,-26.914 14.797,0 26.913,12.115 26.913,26.914 0,14.885 -12.115,27 -26.913,27 z m 0.75677,-80.4505 c -29.77,0 -53.915,24.145 -53.915,53.827 0,29.769 24.145,53.914 53.915,53.914 29.683,0 53.827,-24.146 53.827,-53.914 0,-29.682 -24.144,-53.827 -53.827,-53.827 z"
           inkscape:connector-curvature="0" />
      </g>
      <g
         id="g5224" />
      <g
         id="g5226" />
      <g
         id="g5228" />
      <g
         id="g5230" />
      <g
         id="g5232" />
      <g
         id="g5234" />
      <g
         id="g5236" />
      <g
         id="g5238" />
      <g
         id="g5240" />
      <g
         id="g5242" />
      <g
         id="g5244" />
      <g
         id="g5246" />
      <g
         id="g5248" />
      <g
         id="g5250" />
      <g
         id="g5252" />
    </g>
  </g>
</svg>
