<?xml version="1.0" encoding="UTF-8" standalone="no"?>
<!-- Created with Inkscape (http://www.inkscape.org/) -->

<svg
   xmlns:dc="http://purl.org/dc/elements/1.1/"
   xmlns:cc="http://creativecommons.org/ns#"
   xmlns:rdf="http://www.w3.org/1999/02/22-rdf-syntax-ns#"
   xmlns:svg="http://www.w3.org/2000/svg"
   xmlns="http://www.w3.org/2000/svg"
   xmlns:sodipodi="http://sodipodi.sourceforge.net/DTD/sodipodi-0.dtd"
   xmlns:inkscape="http://www.inkscape.org/namespaces/inkscape"
   width="1.3229123mm"
   height="1.3228748mm"
   viewBox="0 0 1.3229123 1.3228748"
   version="1.1"
   id="svg8"
   inkscape:version="0.92.4 (5da689c313, 2019-01-14)"
   sodipodi:docname="telefono.svg">
  <defs
     id="defs2" />
  <sodipodi:namedview
     id="base"
     pagecolor="#ffffff"
     bordercolor="#666666"
     borderopacity="1.0"
     inkscape:pageopacity="0.0"
     inkscape:pageshadow="2"
     inkscape:zoom="7.9195959"
     inkscape:cx="35.14506"
     inkscape:cy="-8.6934901"
     inkscape:document-units="mm"
     inkscape:current-layer="layer1"
     showgrid="false"
     fit-margin-top="0"
     fit-margin-left="0"
     fit-margin-right="0"
     fit-margin-bottom="0"
     inkscape:window-width="1366"
     inkscape:window-height="705"
     inkscape:window-x="-8"
     inkscape:window-y="-8"
     inkscape:window-maximized="1" />
  <metadata
     id="metadata5">
    <rdf:RDF>
      <cc:Work
         rdf:about="">
        <dc:format>image/svg+xml</dc:format>
        <dc:type
           rdf:resource="http://purl.org/dc/dcmitype/StillImage" />
        <dc:title></dc:title>
      </cc:Work>
    </rdf:RDF>
  </metadata>
  <g
     inkscape:label="Capa 1"
     inkscape:groupmode="layer"
     id="layer1"
     transform="translate(-69.095219,-145.99616)">
    <path
       id="path3713"
       d="m 70.380416,146.93104 -0.289394,-0.12403 a 0.06201304,0.06201304 0 0 0 -0.07235,0.0178 l -0.128161,0.15659 a 0.95773969,0.95773969 0 0 1 -0.457837,-0.45784 l 0.156583,-0.12816 a 0.06185801,0.06185801 0 0 0 0.01783,-0.0724 l -0.124025,-0.28939 a 0.06242646,0.06242646 0 0 0 -0.07106,-0.0359 l -0.268723,0.062 a 0.06201304,0.06201304 0 0 0 -0.04806,0.0604 c 0,0.66276 0.537188,1.19892 1.198918,1.19892 a 0.06201304,0.06201304 0 0 0 0.06046,-0.0481 l 0.06201,-0.26872 a 0.06276236,0.06276236 0 0 0 -0.0362,-0.0713 z"
       inkscape:connector-curvature="0"
       style="fill:#ffffff;stroke-width:0.00258387" />
  </g>
</svg>
