<?xml version="1.0" encoding="UTF-8" standalone="no"?>
<!-- Created with Inkscape (http://www.inkscape.org/) -->

<svg
   xmlns:dc="http://purl.org/dc/elements/1.1/"
   xmlns:cc="http://creativecommons.org/ns#"
   xmlns:rdf="http://www.w3.org/1999/02/22-rdf-syntax-ns#"
   xmlns:svg="http://www.w3.org/2000/svg"
   xmlns="http://www.w3.org/2000/svg"
   xmlns:sodipodi="http://sodipodi.sourceforge.net/DTD/sodipodi-0.dtd"
   xmlns:inkscape="http://www.inkscape.org/namespaces/inkscape"
   width="52.228802mm"
   height="23.102093mm"
   viewBox="0 0 52.228802 23.102093"
   version="1.1"
   id="svg250"
   inkscape:version="0.92.4 (5da689c313, 2019-01-14)"
   sodipodi:docname="logo-footer.svg">
  <defs
     id="defs244">
    <filter
       style="color-interpolation-filters:sRGB"
       inkscape:label="Drop Shadow"
       id="filter5571">
      <feFlood
         flood-opacity="0.737255"
         flood-color="rgb(0,0,0)"
         result="flood"
         id="feFlood5561" />
      <feComposite
         in="flood"
         in2="SourceGraphic"
         operator="in"
         result="composite1"
         id="feComposite5563" />
      <feGaussianBlur
         in="composite1"
         stdDeviation="8.9"
         result="blur"
         id="feGaussianBlur5565" />
      <feOffset
         dx="7.3"
         dy="6.5"
         result="offset"
         id="feOffset5567" />
      <feComposite
         in="SourceGraphic"
         in2="offset"
         operator="over"
         result="composite2"
         id="feComposite5569" />
    </filter>
  </defs>
  <sodipodi:namedview
     id="base"
     pagecolor="#ffffff"
     bordercolor="#666666"
     borderopacity="1.0"
     inkscape:pageopacity="0.0"
     inkscape:pageshadow="2"
     inkscape:zoom="0.35"
     inkscape:cx="1080.0204"
     inkscape:cy="230.37841"
     inkscape:document-units="mm"
     inkscape:current-layer="layer1"
     showgrid="false"
     fit-margin-top="0"
     fit-margin-left="0"
     fit-margin-right="0"
     fit-margin-bottom="0"
     inkscape:window-width="1366"
     inkscape:window-height="705"
     inkscape:window-x="-8"
     inkscape:window-y="-8"
     inkscape:window-maximized="1" />
  <metadata
     id="metadata247">
    <rdf:RDF>
      <cc:Work
         rdf:about="">
        <dc:format>image/svg+xml</dc:format>
        <dc:type
           rdf:resource="http://purl.org/dc/dcmitype/StillImage" />
        <dc:title></dc:title>
      </cc:Work>
    </rdf:RDF>
  </metadata>
  <g
     inkscape:label="Capa 1"
     inkscape:groupmode="layer"
     id="layer1"
     transform="translate(-16.911966,-156.55908)">
    <text
       xml:space="preserve"
       style="font-style:normal;font-variant:normal;font-weight:normal;font-stretch:normal;font-size:5.59841681px;line-height:1.25;font-family:'Franklin Gothic Heavy';-inkscape-font-specification:'Franklin Gothic Heavy, ';letter-spacing:0px;word-spacing:0px;fill:#ffffff;fill-opacity:1;stroke:none;stroke-width:0.13996042"
       x="34.70285"
       y="163.92226"
       id="text5170"
       inkscape:export-xdpi="96"
       inkscape:export-ydpi="96"><tspan
         sodipodi:role="line"
         id="tspan5168"
         x="34.70285"
         y="163.92226"
         style="font-style:normal;font-variant:normal;font-weight:normal;font-stretch:normal;font-family:'Franklin Gothic Heavy';-inkscape-font-specification:'Franklin Gothic Heavy, ';fill:#ffffff;stroke-width:0.13996042">TRANSPORTE</tspan></text>
    <text
       xml:space="preserve"
       style="font-style:normal;font-variant:normal;font-weight:normal;font-stretch:normal;font-size:5.52716351px;line-height:1.25;font-family:'Franklin Gothic Heavy';-inkscape-font-specification:'Franklin Gothic Heavy, ';letter-spacing:0px;word-spacing:0px;fill:#ffffff;fill-opacity:1;stroke:none;stroke-width:0.13817909"
       x="34.613159"
       y="169.22144"
       id="text5174"
       inkscape:export-xdpi="96"
       inkscape:export-ydpi="96"><tspan
         sodipodi:role="line"
         id="tspan5172"
         x="34.613159"
         y="169.22144"
         style="font-style:normal;font-variant:normal;font-weight:normal;font-stretch:normal;font-family:'Franklin Gothic Heavy';-inkscape-font-specification:'Franklin Gothic Heavy, ';fill:#ffffff;stroke-width:0.13817909">JAVIER</tspan></text>
    <g
       id="g6540"
       style="fill:#ffffff;fill-opacity:1;stroke:none;stroke-opacity:1"
       transform="matrix(0.28412219,0,0,0.28412219,-11.490427,174.82513)"
       inkscape:export-xdpi="96"
       inkscape:export-ydpi="96">
      <path
         inkscape:connector-curvature="0"
         id="path5210"
         d="m 115.85344,-44.547734 0.008,-7.18914 -5.83719,0.0183 -9.92607,-12.19865 h 46.25968 v 12.1804 h -15.76127 l -0.002,25.33199 z"
         style="opacity:1;fill:#ffffff;fill-opacity:1;stroke:none;stroke-width:0.26458332px;stroke-linecap:butt;stroke-linejoin:miter;stroke-opacity:1" />
      <path
         inkscape:connector-curvature="0"
         id="path5212"
         d="m 134.54518,-21.634094 -0.006,-26.28195 h 15.1125 l -0.0349,44.9334002 z"
         style="opacity:1;fill:#ffffff;fill-opacity:1;stroke:none;stroke-width:0.26458332px;stroke-linecap:butt;stroke-linejoin:miter;stroke-opacity:1" />
    </g>
    <path
       style="opacity:0.95;fill:#d27a00;fill-opacity:1;stroke:#d27a00;stroke-width:0.075174px;stroke-linecap:butt;stroke-linejoin:miter;stroke-opacity:0.28140702"
       d="m 16.949553,156.66482 v 3.46072 l 2.820214,0.005 z"
       id="path5214"
       inkscape:connector-curvature="0" />
    <path
       style="opacity:0.95;fill:#d27a00;fill-opacity:1;stroke:#d27a00;stroke-width:0.075174px;stroke-linecap:butt;stroke-linejoin:miter;stroke-opacity:0.28140702"
       d="m 21.426083,162.16814 0.0023,11.90355 h 4.186576 l -5.55e-4,-6.74877 z"
       id="path5216"
       inkscape:connector-curvature="0" />
    <path
       style="opacity:0.95;fill:#d27a00;fill-opacity:1;stroke:#d27a00;stroke-width:0.075174px;stroke-linecap:butt;stroke-linejoin:miter;stroke-opacity:0.28140702"
       d="m 26.736821,168.67841 c -0.176659,7.63404 0.906083,7.49121 -4.775759,7.15133 0.0099,2.34491 0,3.40933 0,3.40933 5.46792,1.07532 8.746378,0.0676 9.05796,-5.26137 z"
       id="path5218"
       inkscape:connector-curvature="0"
       sodipodi:nodetypes="ccccc" />
    <g
       id="g5278"
       transform="matrix(0.01126909,0,0,0.01126909,23.128572,164.52061)"
       style="filter:url(#filter5571)"
       inkscape:export-xdpi="96"
       inkscape:export-ydpi="96">
      <g
         id="g5222">
        <path
           id="path5284"
           d="M 320.192,368.956 H -82.693001 C -92.251001,368.956 -100,361.208 -100,351.649 V 121.62114 c 0,-9.559 11.320444,-24.433824 20.878428,-24.45086 L 321.62057,96.456 c 9.55898,-0.01704 17.3661,10.60632 17.308,20.16514 L 337.5,351.649 c -0.0581,9.55882 -7.749,17.307 -17.308,17.307 z M 517.153,245.552 H 409.327 c -4.76,0 -41.48833,3.3348 -41.51114,-1.51114 l -0.50508,-107.28649 58.15636,-0.41433 66.71545,0.0346 c 10.93622,4.7997 39.64849,47.98224 39.64849,47.98224 l 38.38286,59.22485 C 551.80305,245.50568 524.163,245.552 517.153,245.552 Z m 86.194,140.712 H 582.318 V 268.658 c 0,-13.759 -4.154,-27.259 -11.856,-38.683 l -52.701,-78.057 c -12.809,-19.039 -34.356,-30.462 -57.375,-30.462 h -81.692 c -9.52,0 -17.308,7.702 -17.308,17.308 v 247.5 H 87.682998 C 100.318,397.254 109.058,412.486 111.568,429.879 h 281.144 c 4.933,-34.355 34.529,-60.923 70.27,-60.923 35.739,0 65.336,26.567 70.355,60.923 h 70.01 c 4.847,0 8.653,-3.895 8.653,-8.654 v -26.307 c 0,-4.76 -3.808,-8.654 -8.653,-8.654 z m -140.366,80.827 c -14.885,0 -26.914,-12.115 -26.914,-27 0,-14.798 12.029,-26.914 26.914,-26.914 14.884,0 26.913,12.115 26.913,26.914 10e-4,14.885 -12.029,27 -26.913,27 z m 0,-80.827 c -29.684,0 -53.827,24.145 -53.827,53.827 0,29.769 24.144,53.914 53.827,53.914 29.769,0 53.826,-24.146 53.826,-53.914 10e-4,-29.682 -24.057,-53.827 -53.826,-53.827 z M -5.1120018,386.287 H -85.772001 c -4.779,0 -8.653,3.874 -8.653,8.653 v 26.256 c 0,4.779 3.874,8.653 8.653,8.653 h 56.713999 c 2.526,-17.325 11.27,-32.63 23.9460002,-43.562 z m 45.6532298,80.4275 c -14.885,0 -27,-12.115 -27,-27 0,-14.798 12.115,-26.914 27,-26.914 14.797,0 26.913,12.115 26.913,26.914 0,14.885 -12.115,27 -26.913,27 z m 0.75677,-80.4505 c -29.77,0 -53.915,24.145 -53.915,53.827 0,29.769 24.145,53.914 53.915,53.914 29.683,0 53.827,-24.146 53.827,-53.914 0,-29.682 -24.144,-53.827 -53.827,-53.827 z"
           inkscape:connector-curvature="0" />
      </g>
      <g
         id="g5224" />
      <g
         id="g5226" />
      <g
         id="g5228" />
      <g
         id="g5230" />
      <g
         id="g5232" />
      <g
         id="g5234" />
      <g
         id="g5236" />
      <g
         id="g5238" />
      <g
         id="g5240" />
      <g
         id="g5242" />
      <g
         id="g5244" />
      <g
         id="g5246" />
      <g
         id="g5248" />
      <g
         id="g5250" />
      <g
         id="g5252" />
    </g>
  </g>
</svg>
