<?xml version="1.0" encoding="UTF-8" standalone="no"?>
<!-- Created with Inkscape (http://www.inkscape.org/) -->

<svg
   xmlns:dc="http://purl.org/dc/elements/1.1/"
   xmlns:cc="http://creativecommons.org/ns#"
   xmlns:rdf="http://www.w3.org/1999/02/22-rdf-syntax-ns#"
   xmlns:svg="http://www.w3.org/2000/svg"
   xmlns="http://www.w3.org/2000/svg"
   xmlns:sodipodi="http://sodipodi.sourceforge.net/DTD/sodipodi-0.dtd"
   xmlns:inkscape="http://www.inkscape.org/namespaces/inkscape"
   width="1.3229172mm"
   height="1.3228796mm"
   viewBox="0 0 1.3229172 1.3228796"
   version="1.1"
   id="svg8"
   inkscape:version="0.92.4 (5da689c313, 2019-01-14)"
   sodipodi:docname="msn.svg">
  <defs
     id="defs2" />
  <sodipodi:namedview
     id="base"
     pagecolor="#ffffff"
     bordercolor="#666666"
     borderopacity="1.0"
     inkscape:pageopacity="0.0"
     inkscape:pageshadow="2"
     inkscape:zoom="22.4"
     inkscape:cx="5.6177684"
     inkscape:cy="4.4796108"
     inkscape:document-units="mm"
     inkscape:current-layer="layer1"
     showgrid="false"
     fit-margin-top="0"
     fit-margin-left="0"
     fit-margin-right="0"
     fit-margin-bottom="0"
     inkscape:window-width="1366"
     inkscape:window-height="705"
     inkscape:window-x="-8"
     inkscape:window-y="-8"
     inkscape:window-maximized="1" />
  <metadata
     id="metadata5">
    <rdf:RDF>
      <cc:Work
         rdf:about="">
        <dc:format>image/svg+xml</dc:format>
        <dc:type
           rdf:resource="http://purl.org/dc/dcmitype/StillImage" />
        <dc:title></dc:title>
      </cc:Work>
    </rdf:RDF>
  </metadata>
  <g
     inkscape:label="Capa 1"
     inkscape:groupmode="layer"
     id="layer1"
     transform="translate(-3.1778738,-212.41131)">
    <path
       id="path3724"
       d="m 3.840799,212.41131 c -0.3734838,0 -0.6629252,0.27296 -0.6629252,0.64164 0,0.19284 0.079242,0.35948 0.208226,0.4746 0.022271,0.02 0.017683,0.0316 0.021471,0.1553 a 0.05313004,0.05313004 0 0 0 0.074361,0.0469 c 0.14112,-0.0621 0.1429337,-0.0671 0.1668582,-0.0605 0.4088506,0.11253 0.852001,-0.14912 0.852001,-0.61622 0,-0.36868 -0.2864809,-0.64164 -0.6599915,-0.64164 z m 0.3980486,0.49377 -0.1947034,0.30825 a 0.09967217,0.09967217 0 0 1 -0.1437872,0.0265 l -0.1549093,-0.11594 a 0.04000756,0.04000756 0 0 0 -0.048009,0 l -0.2090262,0.15854 c -0.027899,0.0212 -0.064439,-0.0123 -0.045635,-0.0418 l 0.1947035,-0.30824 a 0.09964549,0.09964549 0 0 1 0.1437871,-0.0265 l 0.1548559,0.11592 a 0.04000756,0.04000756 0 0 0 0.048009,0 l 0.2091329,-0.15838 c 0.027845,-0.0213 0.064385,0.0121 0.045582,0.0417 z"
       inkscape:connector-curvature="0"
       style="fill:#ffffff;stroke-width:0.00266717" />
  </g>
</svg>
