<?xml version="1.0" encoding="UTF-8" standalone="no"?>
<!-- Created with Inkscape (http://www.inkscape.org/) -->

<svg
   xmlns:dc="http://purl.org/dc/elements/1.1/"
   xmlns:cc="http://creativecommons.org/ns#"
   xmlns:rdf="http://www.w3.org/1999/02/22-rdf-syntax-ns#"
   xmlns:svg="http://www.w3.org/2000/svg"
   xmlns="http://www.w3.org/2000/svg"
   xmlns:sodipodi="http://sodipodi.sourceforge.net/DTD/sodipodi-0.dtd"
   xmlns:inkscape="http://www.inkscape.org/namespaces/inkscape"
   width="118.53336mm"
   height="118.53333mm"
   viewBox="0 0 118.53336 118.53333"
   version="1.1"
   id="svg8"
   inkscape:version="0.92.4 (5da689c313, 2019-01-14)"
   sodipodi:docname="whatsapp.svg">
  <defs
     id="defs2" />
  <sodipodi:namedview
     id="base"
     pagecolor="#ffffff"
     bordercolor="#666666"
     borderopacity="1.0"
     inkscape:pageopacity="0.0"
     inkscape:pageshadow="2"
     inkscape:zoom="0.49497475"
     inkscape:cx="275.05751"
     inkscape:cy="118.34416"
     inkscape:document-units="mm"
     inkscape:current-layer="layer1"
     showgrid="false"
     fit-margin-top="0"
     fit-margin-left="0"
     fit-margin-right="0"
     fit-margin-bottom="0"
     inkscape:window-width="1366"
     inkscape:window-height="705"
     inkscape:window-x="-8"
     inkscape:window-y="-8"
     inkscape:window-maximized="1" />
  <metadata
     id="metadata5">
    <rdf:RDF>
      <cc:Work
         rdf:about="">
        <dc:format>image/svg+xml</dc:format>
        <dc:type
           rdf:resource="http://purl.org/dc/dcmitype/StillImage" />
        <dc:title></dc:title>
      </cc:Work>
    </rdf:RDF>
  </metadata>
  <g
     inkscape:label="Capa 1"
     inkscape:groupmode="layer"
     id="layer1"
     transform="translate(-73.780954,-60.840476)">
    <path
       style="fill:#ffffff;fill-opacity:1;stroke-width:0.26458332"
       d="m 174.56074,78.064852 c -11.08604,-11.1125 -25.84979,-17.224376 -41.53958,-17.224376 -32.385,0 -58.737498,26.352501 -58.737498,58.737504 0,10.3452 2.69875,20.45229 7.831667,29.36875 l -8.334375,30.42708 31.141456,-8.17563 c 8.5725,4.68313 18.22979,7.14375 28.07229,7.14375 h 0.0265 c 32.35855,0 59.29312,-26.3525 59.29312,-58.7375 0,-15.68979 -6.6675,-30.427078 -17.75354,-41.539578 z"
       id="path3728"
       inkscape:connector-curvature="0" />
    <path
       style="fill:#00ff00;stroke-width:0.26458332"
       d="m 133.02116,168.44652 c -8.78416,0 -17.38312,-2.35479 -24.87083,-6.79979 l -1.77271,-1.05834 -18.467916,4.84188 4.92125,-18.01813 -1.164167,-1.85208 c -4.894791,-7.77875 -7.46125,-16.74813 -7.46125,-25.98208 0,-26.908128 21.907503,-48.815628 48.842083,-48.815628 13.04396,0 25.29417,5.08 34.50167,14.313958 9.20749,9.233958 14.86958,21.48417 14.84312,34.52812 0,26.93459 -22.46312,48.84209 -49.37125,48.84209 z"
       id="path3726"
       inkscape:connector-curvature="0" />
    <path
       style="fill:#ffffff;stroke-width:0.26458332"
       d="m 159.797,131.8811 c -1.45521,-0.74083 -8.67834,-4.28625 -10.02771,-4.7625 -1.34938,-0.50271 -2.32834,-0.74083 -3.30729,0.74083 -0.97896,1.48167 -3.78355,4.7625 -4.65667,5.76792 -0.84667,0.97896 -1.71979,1.11125 -3.175,0.37042 -8.62542,-4.31271 -14.2875,-7.69938 -19.97604,-17.4625 -1.50813,-2.59292 1.50812,-2.40771 4.31271,-8.01688 0.47625,-0.97896 0.23812,-1.82562 -0.1323,-2.56646 -0.37041,-0.74083 -3.30729,-7.963953 -4.52437,-10.900828 -1.19063,-2.8575 -2.40771,-2.460625 -3.30729,-2.513542 -0.84667,-0.05292 -1.82563,-0.05292 -2.80459,-0.05292 -0.97895,0 -2.56645,0.370417 -3.91583,1.825625 -1.34937,1.481667 -5.13292,5.027084 -5.13292,12.250205 0,7.22313 5.26521,14.20813 5.97959,15.18709 0.74083,0.97895 10.34521,15.79562 25.0825,22.17208 9.31333,4.02167 12.96458,4.36562 17.62125,3.67771 2.83104,-0.42334 8.67833,-3.54542 9.89541,-6.985 1.21709,-3.43959 1.21709,-6.37646 0.84667,-6.985 -0.34396,-0.66146 -1.32292,-1.03188 -2.77812,-1.74625 z"
       id="path3713"
       inkscape:connector-curvature="0" />
    <path
       style="opacity:1;fill:#00e676;fill-opacity:1;stroke:none;stroke-width:13.78643417;stroke-miterlimit:4;stroke-dasharray:none;stroke-opacity:1"
       d="m 489.71984,635.61651 c -26.69865,-1.66324 -54.88493,-10.21436 -79.04705,-23.98119 l -8.83622,-5.03461 -34.25856,9.00325 c -18.8422,4.95179 -34.34489,8.8885 -34.45041,8.74826 -0.10553,-0.14025 3.90961,-15.22965 8.92252,-33.53202 l 9.11438,-33.27703 -2.06662,-3.59354 c -17.62807,-30.65254 -23.59911,-46.15979 -28.22179,-73.29406 -2.32806,-13.6653 -2.35969,-43.78667 -0.0599,-57.07362 4.86451,-28.10496 13.96142,-51.00811 29.48987,-74.24621 58.4287,-87.43776 178.91585,-107.81877 262.97571,-44.48367 37.67708,28.38789 64.91718,72.13498 73.02991,117.28466 2.86706,15.95602 3.09393,41.55449 0.50838,57.36194 -9.01972,55.14458 -41.89656,102.96306 -90.29363,131.32968 -22.88694,13.41454 -53.60442,23.10135 -77.51214,24.44357 -5.00025,0.28072 -10.90965,0.64301 -13.13198,0.80507 -2.22234,0.16207 -9.49544,-0.0452 -16.16244,-0.46048 z m 86.80832,-78.21492 c 13.65872,-3.55764 29.10729,-14.3089 33.81214,-23.53119 4.44211,-8.70724 6.70008,-26.01809 3.88084,-29.75255 -1.40106,-1.8559 -42.1039,-21.93787 -49.18867,-24.26873 -5.99785,-1.97326 -9.02427,-0.8007 -13.29699,5.15178 -1.87371,2.61033 -6.74309,8.72352 -10.82084,13.58488 -9.43479,11.2478 -9.98377,11.30351 -26.36255,2.67501 -27.88378,-14.68945 -44.75732,-29.13687 -58.96686,-50.48848 -5.07926,-7.63222 -7.78672,-12.68614 -7.78672,-14.53519 0,-1.99841 1.65319,-4.71768 5.60393,-9.21763 6.97419,-7.94372 12.57881,-17.12729 12.57881,-20.61131 0,-2.37656 -16.37792,-43.20296 -20.5531,-51.23412 -2.48492,-4.77989 -5.01641,-5.67358 -16.31747,-5.76057 -9.00535,-0.0693 -10.58045,0.19629 -14.51504,2.44763 -5.53103,3.16481 -15.74194,15.69363 -19.34678,23.73858 -7.70026,17.18469 -7.55456,35.72791 0.43644,55.54524 11.31684,28.0653 44.80611,68.70067 75.68993,91.84099 16.51301,12.37272 30.1605,19.6448 52.68979,28.07581 20.44938,7.65265 38.87458,9.87923 52.46314,6.33985 z"
       id="path3741"
       inkscape:connector-curvature="0"
       transform="scale(0.26458333)" />
  </g>
</svg>
